<svg width="35" height="35" viewBox="0 0 35 35" fill="none" xmlns="http://www.w3.org/2000/svg">
<path fill-rule="evenodd" clip-rule="evenodd" d="M33.8812 0.789013C35.4342 8.20972 32.9262 18.2392 33.8812 25.7826C33.908 26.4605 33.1575 26.3582 32.8176 26.6689C32.5302 29.218 32.5804 32.1055 31.3988 33.7596C30.7221 33.9045 30.713 33.3818 30.5121 33.0502C29.9926 33.2385 30.1615 34.1173 29.627 34.2914C28.4245 34.3119 28.3246 33.2294 28.0317 32.3411C27.1387 32.6313 27.672 34.3443 26.7897 34.6459C23.8936 33.9017 25.7893 29.445 24.6622 27.0234C24.303 29.389 25.3089 33.6873 23.245 34.8231C21.7479 33.9562 22.5801 30.7593 22.003 28.9741C21.2718 30.4411 22.2825 34.0486 20.4077 34.8231C19.3532 33.0889 18.7129 30.1809 19.5226 28.4419C20.3595 30.0917 19.6102 32.3344 20.5861 33.9365C21.5075 33.4994 21.0452 31.6779 21.2947 30.5694C19.4997 29.4695 20.2612 25.8119 19.8759 23.301C19.1388 24.7894 20.5332 28.5872 18.2806 28.9741C18.1507 30.9618 18.8108 34.9854 16.5084 34.6459C14.8219 33.4623 17.026 28.3432 15.2676 26.6693C14.705 28.4253 15.4255 31.3877 14.7358 33.2278C13.3079 33.0995 13.7252 34.8172 12.6088 35C11.9404 34.9589 11.6522 34.5385 11.7221 33.7596C11.1165 33.8322 11.497 34.2377 10.8358 33.9361C10.6783 33.5026 10.4225 33.1674 10.4817 32.5184C9.61197 33.0067 9.76909 34.5239 8.53184 34.6455C8.16785 33.8863 8.07508 32.8567 7.82282 31.9866C7.11853 32.7008 7.57963 34.58 6.2275 34.6455C5.40083 34.2898 5.36767 33.1414 5.34122 31.9866C4.15924 32.4 4.57968 34.4149 3.56865 35C2.65986 34.7852 2.4755 33.8472 2.50511 32.6961C2.10638 32.3411 1.50828 32.8911 1.08705 32.3411C0.884923 30.2978 1.69423 27.2441 0.200766 26.4917C-0.071633 18.2806 -0.245337 8.60135 0.910189 1.32118C3.00885 0.399758 5.49321 0.850599 8.00047 0.789408C12.5318 0.677685 17.3564 0.0803801 22.0034 0.0803801C26.164 0.0799853 30.4442 -0.351511 33.8812 0.789013ZM22.5355 2.38433C22.4128 4.80157 22.2908 7.2204 22.3587 9.82912C26.0949 11.7012 26.6026 20.8846 22.1822 22.4144C22.1352 23.196 21.898 23.7854 22.0038 24.7191C24.9074 24.2082 27.9077 25.0333 31.576 24.3642C30.8753 17.778 32.1745 9.82162 31.7541 2.38433C29.0783 2.26234 25.6444 1.95757 22.5355 2.38433ZM2.5055 3.09296C2.63302 5.1024 2.76764 6.82364 2.32785 8.58832C5.86904 8.85638 8.91952 8.58319 12.9637 8.76597C15.0149 7.60887 17.5692 7.07946 19.523 8.2342C19.8159 6.56269 20.2194 4.10676 20.0547 2.56119C14.1433 2.51737 7.79676 2.86359 2.5055 3.09296ZM14.9139 17.4512C15.3209 15.8997 16.2467 12.2598 15.0907 10.8931C15.0256 12.9309 14.0533 15.63 14.9139 17.4512ZM16.1543 10.8931C15.8815 16.0327 15.298 20.7211 15.977 26.1372C17.4279 21.2138 15.7808 16.5183 16.6861 11.2476C17.3015 13.3383 16.6482 17.1985 17.3951 19.2245C18.4045 17.2794 17.7342 13.6549 17.9269 10.8934C17.3363 10.8931 16.7453 10.8931 16.1543 10.8931ZM2.32785 24.896C5.63217 25.1834 8.54171 25.0029 11.0138 25.4281C11.0087 27.6606 11.2203 29.7095 11.1911 32.6961C12.1074 32.4892 11.741 31.0001 12.0774 30.2141C10.9874 27.9796 12.0576 24.9007 12.0774 21.8826C8.85556 20.3287 7.7032 14.6802 9.77264 11.2472C7.41185 10.7916 4.79247 11.5393 2.32785 11.0695C1.72936 15.1298 2.02584 20.2944 2.32785 24.896ZM19.3449 16.7429C19.9687 15.4875 20.3299 13.1804 19.8767 11.4252C19.4945 11.2764 19.2727 10.9657 18.6363 11.0703C19.0863 12.7466 18.4985 15.4615 19.3449 16.7429ZM13.1413 19.7559C12.9009 16.8349 14.1733 13.6095 13.4954 11.4248C12.1058 13.1184 11.9507 18.0737 13.1413 19.7559ZM19.3449 21.5289C20.2241 21.4219 20.4373 20.0784 20.5869 19.2241C20.9856 16.9293 20.9734 14.2219 20.7634 11.9566C20.5368 11.9459 20.5186 11.7284 20.2316 11.7789C21.153 15.7548 18.7448 17.7804 19.3449 21.5289ZM22.0034 19.2241C23.7242 18.2921 23.0551 14.6924 22.0034 13.5519C21.6725 15.4026 21.6528 17.3975 22.0034 19.2241ZM11.7229 17.2743C11.8259 16.9541 12.1883 14.1532 11.7229 13.906C11.3901 14.6691 10.6427 16.7125 11.7229 17.2743ZM13.6727 19.7559C14.3667 19.7946 14.0185 17.118 13.8499 17.4512C13.8918 18.3197 13.5377 18.7934 13.6727 19.7559ZM17.5723 19.7559C18.9426 21.6536 17.2384 26.1968 18.8127 28.087C19.6331 24.9114 18.7192 20.8581 18.281 17.8065C18.3023 18.7125 17.7579 19.0548 17.5723 19.7559ZM14.559 23.8324C14.7575 22.3322 15.4757 19.611 14.7366 18.3378C14.6158 19.9991 14.3699 22.3824 14.559 23.8324ZM20.5865 21.174C21.5352 21.3481 22.2663 20.3804 22.1818 20.1104C21.5865 20.7515 21.3662 19.519 20.9398 19.4018C21.014 20.1834 20.8932 20.7709 20.5865 21.174ZM16.5092 26.4913C16.5108 27.2307 16.8965 28.0021 16.8637 28.796C16.7938 30.4754 15.6158 32.5875 17.041 34.1141C18.78 30.6021 17.1985 23.7013 17.041 19.9332C17.4871 22.5348 16.5056 24.7937 16.5092 26.4913ZM12.4319 28.796C13.799 27.029 13.3924 23.1597 13.8499 20.9967C13.8124 20.7973 13.6529 20.7204 13.4954 20.6418C12.1982 22.307 12.2231 26.2133 12.4319 28.796ZM21.1183 29.3278C21.9449 27.4356 21.4388 24.2126 21.8269 21.883C21.3042 22.1234 20.7302 22.1049 20.4081 21.7057C20.6591 24.1861 20.097 27.2757 21.1183 29.3278ZM14.559 25.4281C14.0359 27.4403 13.7374 30.2535 14.3817 32.3411C14.8108 30.2291 14.2909 27.1683 15.0903 25.4281C14.9139 25.4281 14.7366 25.4281 14.559 25.4281ZM30.5121 26.6693C31.0814 28.5962 29.7067 31.8556 31.3988 33.2278C31.7193 31.2113 33.0336 28.6065 32.1074 26.4917C31.5527 26.5276 30.8066 26.3724 30.5121 26.6693ZM27.8529 27.0234C28.5781 28.13 27.7459 30.7956 28.7399 31.6325C29.3905 30.368 30.1284 28.5283 29.6266 26.6693C29.0072 26.7589 28.2883 26.7483 27.8529 27.0234ZM25.7262 32.5188C27.1265 31.779 27.2942 28.9042 26.9681 27.0234C24.3152 26.0124 25.9271 30.7206 25.7262 32.5188ZM22.1818 28.796C22.2797 28.4273 22.4582 28.4206 22.7136 28.6187C23.078 30.2018 22.1877 33.1733 23.5987 34.1141C24.2971 32.0577 24.4858 29.1671 23.7771 27.0234C23.1865 27.0234 22.5955 27.0234 22.0034 27.0234C22.1151 27.5627 21.7772 28.5505 22.1818 28.796ZM2.15059 31.9866C2.46129 31.1082 3.44074 29.2441 2.85962 27.5548C2.56432 27.5548 2.26903 27.5548 1.97373 27.5548C1.8478 28.9148 1.23352 31.1173 2.15059 31.9866ZM4.63258 27.7325C5.10988 28.5781 4.04318 30.5441 4.80984 31.1007C5.85799 30.7304 5.32819 28.7826 5.87338 27.9101C5.49321 27.7712 4.88288 27.4794 4.63258 27.7325ZM7.82321 27.7325C7.64872 29.1537 7.87177 29.8651 8.00047 30.9235C8.73989 30.1852 9.03203 29.0001 9.24127 27.7325C8.53579 27.6034 8.52829 27.6034 7.82321 27.7325ZM8.88675 33.76C10.2634 32.9388 10.8149 29.4399 9.95029 27.5552C9.83225 27.5552 9.71382 27.5552 9.59578 27.5552C9.51248 29.6929 8.15206 31.3826 8.88675 33.76ZM3.56904 34.4682C4.4344 33.5409 4.12332 32.6518 3.92316 31.6321C3.66103 30.2934 4.38743 27.9113 3.56904 27.7321C3.48259 30.081 2.54735 32.6325 3.56904 34.4682ZM6.58241 34.1141C7.52436 32.4142 7.0068 30.31 7.11418 27.7325C5.16949 28.2709 5.77706 32.8078 6.58241 34.1141ZM12.7864 34.2914C13.8803 33.0245 13.2937 30.2085 13.3182 28.4419C12.5882 30.0254 11.5203 32.7292 12.7864 34.2914ZM26.7897 34.1141C27.0992 32.6009 28.5781 31.0585 27.3215 29.5054C27.9058 31.5859 25.0448 33.1299 26.7897 34.1141ZM29.627 33.76C29.6286 32.5176 30.3068 31.0167 29.8035 29.8599C29.9333 31.3305 27.9859 32.9317 29.627 33.76Z" fill="black"/>
<path fill-rule="evenodd" clip-rule="evenodd" d="M27.3214 3.09301C32.1153 2.09303 32.0758 9.69336 28.385 9.65191C25.0309 9.61362 23.3104 3.93153 27.3214 3.09301ZM27.4995 6.10717C27.8228 6.84304 28.79 6.96858 29.4485 6.46129C29.852 4.51778 27.3802 4.08431 27.4995 6.10717Z" fill="black"/>
</svg>
