<?xml version="1.0" standalone="no"?>
<!DOCTYPE svg PUBLIC "-//W3C//DTD SVG 20010904//EN"
 "http://www.w3.org/TR/2001/REC-SVG-20010904/DTD/svg10.dtd">
<svg version="1.0" xmlns="http://www.w3.org/2000/svg"
 width="256.000000pt" height="256.000000pt" viewBox="0 0 256.000000 256.000000"
 preserveAspectRatio="xMidYMid meet">

<g transform="translate(0.000000,256.000000) scale(0.100000,-0.100000)"
fill="#000000" stroke="none">
<path d="M54 2399 c-71 -21 -67 -119 5 -139 20 -5 119 -10 221 -10 l186 0 134
-606 c130 -585 134 -607 116 -618 -28 -16 -75 -66 -93 -100 -8 -16 -17 -54
-20 -85 -4 -48 -1 -64 24 -110 42 -79 91 -110 199 -126 49 -7 82 -13 73 -14
-32 -2 -98 -63 -123 -113 -50 -100 -20 -215 72 -282 41 -29 50 -31 127 -31 77
0 86 2 127 31 56 41 98 119 98 183 0 85 -64 179 -142 211 -15 5 150 9 447 9
297 0 462 -4 447 -9 -78 -32 -142 -126 -142 -211 0 -64 42 -142 98 -183 41
-29 50 -31 127 -31 77 0 86 2 127 31 56 41 98 119 98 183 0 85 -64 179 -142
211 -21 8 -20 9 12 9 19 1 51 6 71 11 75 21 75 119 0 140 -22 6 -291 10 -723
10 -610 0 -688 2 -702 16 -27 27 -31 63 -9 92 l20 27 709 5 c390 3 716 9 725
13 9 4 21 18 27 30 14 27 312 1071 312 1091 0 8 -11 28 -24 43 l-24 28 -930 3
-930 2 -22 98 c-47 212 -23 197 -314 199 -127 1 -245 -2 -262 -8z m2321 -476
c-7 -30 -192 -681 -226 -795 l-20 -68 -623 0 -623 0 -97 438 c-53 240 -96 440
-96 445 0 4 381 7 846 7 l846 0 -7 -27z m-1351 -1489 c32 -32 28 -92 -8 -116
-14 -10 -68 -10 -82 0 -36 24 -40 84 -8 116 20 21 78 21 98 0z m1060 0 c32
-32 28 -92 -8 -116 -14 -10 -68 -10 -82 0 -36 24 -40 84 -8 116 20 21 78 21
98 0z"/>
</g>
</svg>
