<svg width="35" height="36" viewBox="0 0 35 36" fill="none" xmlns="http://www.w3.org/2000/svg">
<path d="M15.4983 28.0355C17.4023 28.0355 19.0342 29.592 19.0342 31.6063C19.0342 33.5291 17.4023 35.0855 15.4983 35.0855C13.5944 35.0855 11.9624 33.5291 11.9624 31.6063C11.9624 29.592 13.5944 28.0355 15.4983 28.0355ZM15.4983 29.8667C14.501 29.8667 13.7757 30.5992 13.7757 31.6063C13.7757 32.5219 14.501 33.2544 15.4983 33.2544C16.405 33.2544 17.2209 32.5219 17.2209 31.6063C17.2209 30.5992 16.405 29.8667 15.4983 29.8667Z" fill="black"/>
<path d="M26.4693 28.0355C28.3732 28.0355 30.0052 29.592 30.0052 31.6063C30.0052 33.5291 28.3732 35.0855 26.4693 35.0855C24.5653 35.0855 22.9333 33.5291 22.9333 31.6063C22.9333 29.592 24.5653 28.0355 26.4693 28.0355ZM26.4693 29.8667C25.5626 29.8667 24.7466 30.5992 24.7466 31.6063C24.7466 32.5219 25.5626 33.2544 26.4693 33.2544C27.3759 33.2544 28.1919 32.5219 28.1919 31.6063C28.1919 30.5992 27.3759 29.8667 26.4693 29.8667Z" fill="black"/>
<path d="M0.992371 0.751111L7.06689 2.12449C7.42955 2.21605 7.61088 2.39917 7.70155 2.7654L9.15218 9.72385H33.9036C34.3569 9.72385 34.7196 10.1816 34.6289 10.731L31.2743 22.8167C31.1837 23.183 30.9117 23.3661 30.549 23.3661H11.9628L12.3254 25.3804H30.277C31.2743 25.3804 31.2743 27.2115 30.277 27.2115H11.5095C11.1468 27.2115 10.7841 26.9369 10.6935 26.5706L6.06958 3.77254L0.629713 2.58228C-0.458261 2.30761 -0.00493876 0.567994 0.992371 0.751111ZM9.51484 11.555L11.5095 21.5349H29.8237L32.5436 11.555H9.51484Z" fill="black"/>
</svg>
