<svg width="29" height="30" viewBox="0 0 29 30" fill="none" xmlns="http://www.w3.org/2000/svg">
<path d="M28.6986 27.28C28.7 27.2667 28.7067 27.2548 28.7067 27.241V0.357143C28.7067 0.346667 28.7014 0.337619 28.7005 0.327143C28.6995 0.316667 28.7033 0.306667 28.7014 0.295714C28.699 0.281429 28.6905 0.270476 28.6862 0.256667C28.6795 0.234286 28.6724 0.212857 28.6614 0.192381C28.65 0.170952 28.6367 0.152381 28.6219 0.13381C28.6086 0.117143 28.5948 0.102381 28.5786 0.0885714C28.5595 0.0723809 28.5395 0.0590476 28.5171 0.0476191C28.499 0.0376191 28.4814 0.0290476 28.4619 0.0228571C28.4376 0.0147619 28.4133 0.0104762 28.3876 0.00761906C28.3743 0.00619049 28.3629 0 28.3495 0H11.9048C11.8919 0 11.8814 0.00619047 11.869 0.00714285C11.8567 0.00809523 11.8448 0.0047619 11.8319 0.00714285L0.284762 2.40952C0.272857 2.4119 0.26381 2.41952 0.252381 2.42286C0.229048 2.43048 0.208095 2.43952 0.187143 2.45095C0.166667 2.46238 0.148571 2.47429 0.131429 2.48905C0.11381 2.50333 0.0990476 2.51905 0.0847619 2.53667C0.07 2.55476 0.057619 2.57286 0.0461904 2.59333C0.0357142 2.61286 0.0280953 2.63286 0.0214286 2.65429C0.0142858 2.67762 0.00952375 2.70048 0.00714279 2.72524C0.00571422 2.73714 0 2.74714 0 2.75905V29.6429C0 29.84 0.16 30 0.357143 30H14.5838C14.6038 30 14.6243 29.9981 14.6448 29.9948L28.41 27.5929C28.4243 27.5905 28.4352 27.5819 28.4486 27.5781C28.4714 27.571 28.4929 27.5638 28.5133 27.5524C28.5343 27.5414 28.5524 27.5286 28.5705 27.5143C28.5881 27.5 28.6033 27.4852 28.6186 27.4681C28.6333 27.45 28.6457 27.4319 28.6567 27.4114C28.6671 27.3919 28.6767 27.3724 28.6838 27.3505C28.6919 27.3281 28.6957 27.3048 28.6986 27.28ZM11.9419 0.714286H24.2248L14.5533 2.4019H3.8281L11.9419 0.714286ZM14.941 3.05905L27.9919 0.781905V26.9405L14.941 29.2176V3.05905ZM14.2267 29.2857H0.714286V3.11619H14.2267V29.2857Z" fill="black"/>
<path d="M3.2673 22.8186C3.07016 22.8186 2.91016 22.9786 2.91016 23.1757V26.7786C2.91016 26.9757 3.07016 27.1357 3.2673 27.1357C3.46444 27.1357 3.62444 26.9757 3.62444 26.7786V23.1757C3.62444 22.9786 3.46444 22.8186 3.2673 22.8186Z" fill="black"/>
<path d="M5.39248 22.8186C5.19534 22.8186 5.03534 22.9786 5.03534 23.1757V26.7786C5.03534 26.9757 5.19534 27.1357 5.39248 27.1357C5.58963 27.1357 5.74963 26.9757 5.74963 26.7786V23.1757C5.74963 22.9786 5.58963 22.8186 5.39248 22.8186Z" fill="black"/>
<path d="M10.288 22.8657C9.12328 22.8657 8.17566 23.8129 8.17566 24.9776C8.17566 26.1429 9.12328 27.091 10.288 27.091C11.4528 27.091 12.4009 26.1433 12.4009 24.9776C12.4004 23.8129 11.4528 22.8657 10.288 22.8657ZM10.288 26.3762C9.51709 26.3762 8.88994 25.7491 8.88994 24.9772C8.88994 24.2067 9.51709 23.5795 10.288 23.5795C11.059 23.5795 11.6866 24.2062 11.6866 24.9772C11.6861 25.7486 11.059 26.3762 10.288 26.3762Z" fill="black"/>
<path d="M2.80526 9.67522H12.1362C12.3334 9.67522 12.4934 9.51522 12.4934 9.31808C12.4934 9.12094 12.3334 8.96094 12.1362 8.96094H2.80526C2.60812 8.96094 2.44812 9.12094 2.44812 9.31808C2.44812 9.51522 2.60812 9.67522 2.80526 9.67522Z" fill="black"/>
</svg>
