<svg width="30" height="32" viewBox="0 0 30 32" fill="none" xmlns="http://www.w3.org/2000/svg">
<path d="M28.2746 6.64745H27.7696V5.25459C27.7696 3.98724 26.8199 2.95612 25.6521 2.95612H20.3763L19.6267 1.05714C19.3728 0.414796 18.7931 0 18.1495 0H11.8505C11.2069 0 10.6272 0.414796 10.3733 1.05765L9.62374 2.95612H4.34792C3.18008 2.95612 2.23038 3.98724 2.23038 5.25459V6.64745H1.72545C0.773871 6.64745 0 7.48724 0 8.5199V10.1082C0 10.3245 0.161742 10.5 0.361072 10.5H2.31704L3.93137 28.2689C4.01599 29.2036 4.7325 29.9082 5.59803 29.9082H6.78339L7.18807 31.7015C7.22756 31.8765 7.37236 32 7.53879 32H11.7565C11.9229 32 12.0677 31.8765 12.1072 31.7015L12.5119 29.9082H17.4863L17.8909 31.7015C17.9304 31.8765 18.0752 32 18.2417 32H22.4589C22.6253 32 22.7701 31.8765 22.8096 31.7015L23.2143 29.9082H24.3963C25.2614 29.9082 25.9784 29.2036 26.063 28.2699L27.6829 10.5H29.6389C29.8383 10.5 30 10.3245 30 10.1082V8.5199C30 7.48724 29.2261 6.64745 28.2746 6.64745ZM11.0371 1.36633C11.1768 1.01224 11.496 0.783673 11.8505 0.783673H18.1495C18.504 0.783673 18.8232 1.01224 18.9629 1.36582L19.5905 2.95612H10.4095L11.0371 1.36633ZM2.95253 5.25459C2.95253 4.41939 3.57829 3.7398 4.34792 3.7398C9.45886 3.7398 20.5248 3.7398 25.6521 3.7398C26.4217 3.7398 27.0475 4.41939 27.0475 5.25459V6.64745H2.95253V5.25459ZM11.473 31.2163H7.82229L7.52704 29.9082H11.7682L11.473 31.2163ZM22.1754 31.2163H18.5252L18.2299 29.9082H22.4706L22.1754 31.2163ZM25.3446 28.1929C25.2962 28.724 24.8886 29.1245 24.3963 29.1245C18.1233 29.1245 11.8593 29.1245 5.59803 29.1245C5.10579 29.1245 4.69818 28.7235 4.64975 28.1923L3.04232 10.5H26.9572L25.3446 28.1929ZM29.2779 9.71633C18.6316 9.71633 11.3606 9.71633 0.722144 9.71633V8.5199C0.722144 7.91939 1.17208 7.43112 1.72545 7.43112C10.8219 7.43112 19.1061 7.43112 28.2746 7.43112C28.8279 7.43112 29.2779 7.91939 29.2779 8.5199V9.71633Z" fill="black"/>
<path d="M21.0577 26.6696H23.2439C23.4315 26.6696 23.5875 26.514 23.6035 26.3109L24.6214 13.3803C24.6303 13.2711 24.596 13.163 24.5278 13.0824C24.4592 13.0012 24.3628 12.9553 24.2617 12.9553H21.8052C21.6148 12.9553 21.4568 13.116 21.4451 13.3227L20.6976 26.2533C20.691 26.3614 20.7262 26.4671 20.7944 26.5461C20.8626 26.6247 20.958 26.6696 21.0577 26.6696ZM22.1442 13.739H23.8687L22.9124 25.8859H21.4423L22.1442 13.739Z" fill="black"/>
<path d="M16.2903 26.6696H18.4765C18.6707 26.6696 18.8305 26.5028 18.8371 26.2921L19.2663 13.3614C19.2701 13.2548 19.2334 13.1518 19.1657 13.0752C19.0975 12.9987 19.0035 12.9553 18.9057 12.9553H16.4492C16.2518 12.9553 16.091 13.1278 16.0881 13.3421L15.9292 26.2727C15.9278 26.3773 15.9654 26.4783 16.0331 26.5528C16.1013 26.6278 16.1939 26.6696 16.2903 26.6696ZM16.8056 13.739H18.5315L18.1281 25.8859H16.6561L16.8056 13.739Z" fill="black"/>
<path d="M11.5233 26.6696H13.7094C13.7132 26.6696 13.7165 26.6696 13.7188 26.6696C13.9187 26.6696 14.0799 26.4941 14.0799 26.2778C14.0799 26.2451 14.0766 26.213 14.0696 26.1824L13.9116 13.3421C13.9088 13.1278 13.748 12.9553 13.5505 12.9553H11.094C10.9962 12.9553 10.9022 12.9987 10.834 13.0752C10.7663 13.1518 10.7297 13.2548 10.7334 13.3614L11.1627 26.2921C11.1692 26.5028 11.3291 26.6696 11.5233 26.6696ZM13.1942 13.739L13.3437 25.8859H11.8716L11.4683 13.739H13.1942Z" fill="black"/>
<path d="M6.75587 26.6696H8.94205C8.94534 26.6696 8.9491 26.6696 8.95145 26.6696C9.15127 26.6696 9.31253 26.4941 9.31253 26.2778C9.31253 26.238 9.30735 26.1997 9.29748 26.164L8.55465 13.3227C8.5429 13.116 8.38493 12.9553 8.19452 12.9553H5.73801C5.63693 12.9553 5.54055 13.0012 5.47191 13.0824C5.40374 13.163 5.36941 13.2711 5.37835 13.3803L6.39621 26.3109C6.4122 26.514 6.56829 26.6696 6.75587 26.6696ZM7.85554 13.739L8.55747 25.8859H7.08733L6.13105 13.739H7.85554Z" fill="black"/>
</svg>
