<svg width="34" height="35" viewBox="0 0 34 35" fill="none" xmlns="http://www.w3.org/2000/svg">
<path fill-rule="evenodd" clip-rule="evenodd" d="M8.47281 2.0964C8.52105 2.54238 8.41078 2.82983 7.96156 2.77834C7.91331 2.33236 8.02359 2.04491 8.47281 2.0964Z" fill="black"/>
<path fill-rule="evenodd" clip-rule="evenodd" d="M20.236 2.09644C20.4634 2.09644 20.6909 2.09644 20.9183 2.09644C21.1174 2.68796 19.9652 2.88905 20.236 2.09644Z" fill="black"/>
<path fill-rule="evenodd" clip-rule="evenodd" d="M10.1776 2.94861C10.6264 2.89753 10.7371 3.18498 10.6888 3.63055C10.4614 3.63055 10.2339 3.63055 10.0069 3.63055C9.93514 3.27417 10.1241 3.1793 10.1776 2.94861Z" fill="black"/>
<path fill-rule="evenodd" clip-rule="evenodd" d="M28.0786 3.11938C28.2489 3.11938 28.4196 3.11938 28.5903 3.11938C28.5903 3.34683 28.5903 3.57428 28.5903 3.80132C28.3624 3.80132 28.1358 3.80132 27.9079 3.80132C27.8868 3.49562 28.1167 3.44211 28.0786 3.11938Z" fill="black"/>
<path fill-rule="evenodd" clip-rule="evenodd" d="M13.758 3.63062C13.9286 3.63062 14.0989 3.63062 14.2696 3.63062C14.3142 4.18646 14.0669 4.45121 13.5873 4.48324C13.5329 4.08794 13.6148 3.82887 13.758 3.63062Z" fill="black"/>
<path fill-rule="evenodd" clip-rule="evenodd" d="M31.1474 3.80127C31.3177 3.80127 31.488 3.80127 31.6591 3.80127C31.6591 4.02872 31.6591 4.25576 31.6591 4.4832C31.0894 4.6543 31.0996 4.24684 31.1474 3.80127Z" fill="black"/>
<path fill-rule="evenodd" clip-rule="evenodd" d="M11.5415 3.97192C11.9758 3.98895 11.9445 4.60723 11.7122 4.82414C11.0145 4.91779 11.1357 4.08788 11.5415 3.97192Z" fill="black"/>
<path fill-rule="evenodd" clip-rule="evenodd" d="M17.8493 4.48328C18.1489 4.52422 18.2385 4.7764 18.1902 5.16521C18.0195 5.16521 17.8493 5.16521 17.679 5.16521C17.6072 4.80884 17.7957 4.71397 17.8493 4.48328Z" fill="black"/>
<path fill-rule="evenodd" clip-rule="evenodd" d="M8.30215 9.25665C4.9987 10.0266 4.42785 6.53905 6.08607 5.16504C7.04613 5.37303 9.36195 4.39472 9.8363 6.18794C10.1651 7.42897 9.25491 8.52039 8.30215 9.25665ZM6.42703 8.40443C7.07207 8.82041 7.81199 8.69513 8.64352 8.57472C9.19937 8.09631 9.78319 6.34728 8.81381 5.84698C9.5225 7.66087 7.34087 7.68398 6.42703 8.40443Z" fill="black"/>
<path fill-rule="evenodd" clip-rule="evenodd" d="M3.35826 5.67628C3.43651 6.20902 2.99418 6.22159 2.50604 6.18794C2.50604 6.01766 2.50604 5.84697 2.50604 5.67628C2.72984 5.45735 3.13446 5.45735 3.35826 5.67628Z" fill="black"/>
<path fill-rule="evenodd" clip-rule="evenodd" d="M26.3738 5.67639C26.5444 5.67639 26.7143 5.67639 26.885 5.67639C26.8919 6.19494 26.9847 6.79863 26.3738 6.69929C26.1406 6.48117 26.1406 5.89451 26.3738 5.67639Z" fill="black"/>
<path fill-rule="evenodd" clip-rule="evenodd" d="M21.2589 6.69937C21.2362 8.39975 21.2139 9.73159 21.0878 10.9621C18.9516 10.6989 17.1316 11.925 17.3376 14.542C18.2373 14.5676 19.469 14.5181 20.5766 14.3713C20.7031 15.6699 20.1116 16.8457 20.5766 17.9517C20.1408 18.7086 18.9407 18.7013 17.679 18.634C17.4434 19.1275 17.2894 20.7788 17.8493 21.0204C17.07 21.7234 17.265 24.1029 17.5083 25.2831C16.5904 26.1832 14.5093 25.9209 13.0757 26.306C12.3192 24.0847 12.3265 21.0601 12.3938 18.4634C11.6506 18.1771 10.5547 18.8542 9.49535 18.8047C9.23871 17.5836 9.24439 16.1005 9.15479 14.7127C10.6833 14.3353 11.186 14.8356 12.5641 14.3717C12.631 8.98235 15.7743 6.67018 21.2589 6.69937ZM13.4171 14.542C12.9504 15.4964 11.0834 15.05 10.0074 15.3942C9.90686 16.3876 10.1728 17.3959 10.0074 17.9517C11.2099 18.0745 11.7836 17.5686 12.9058 17.6107C13.2869 20.1281 12.7842 23.5284 13.9287 25.2827C14.4035 25.4027 15.9064 25.2665 16.6561 25.1116C16.4534 22.8262 16.6942 20.3154 16.8268 18.1224C17.8683 18.1406 18.7619 18.0125 19.5541 17.781C19.8971 17.2718 19.651 16.1727 19.7252 15.3942C18.7899 14.8664 17.4276 15.7839 16.4858 15.224C16.4323 12.2153 17.6072 10.435 20.4067 10.2797C20.4055 9.03587 20.4448 8.32474 20.577 7.55199C16.067 7.01115 12.8134 9.97282 13.4171 14.542Z" fill="black"/>
<path fill-rule="evenodd" clip-rule="evenodd" d="M14.2692 7.04065C14.3831 7.04065 14.4962 7.04065 14.6098 7.04065C14.5785 7.18539 14.6762 7.2012 14.7804 7.21093C14.7804 7.32486 14.7804 7.43838 14.7804 7.5519C14.6353 7.52068 14.6199 7.61839 14.6098 7.72218C14.4962 7.72218 14.3827 7.72218 14.2692 7.72218C14.3004 7.57744 14.2027 7.56163 14.0985 7.5519C14.0985 7.43797 14.0985 7.32445 14.0985 7.21093C14.2441 7.24255 14.2595 7.14444 14.2692 7.04065Z" fill="black"/>
<path fill-rule="evenodd" clip-rule="evenodd" d="M23.9869 7.38171C24.2136 7.38171 24.4418 7.38171 24.6685 7.38171C24.7415 7.73809 24.5521 7.83255 24.4986 8.06365C24.049 8.11473 23.9391 7.82728 23.9869 7.38171Z" fill="black"/>
<path fill-rule="evenodd" clip-rule="evenodd" d="M25.5216 8.74514C25.5216 8.91583 25.5216 9.08651 25.5216 9.2568C25.2192 9.21787 24.6674 9.42829 24.8389 8.91583C24.9913 8.78325 25.2244 8.73257 25.5216 8.74514Z" fill="black"/>
<path fill-rule="evenodd" clip-rule="evenodd" d="M10.1776 9.42747C11.0862 9.32205 10.9641 10.3977 10.0069 10.1094C9.93514 9.75303 10.1241 9.65775 10.1776 9.42747Z" fill="black"/>
<path fill-rule="evenodd" clip-rule="evenodd" d="M22.6228 9.59766C22.9309 9.89038 22.5701 10.2682 22.1111 10.2796C22.0637 9.83402 22.1736 9.54657 22.6228 9.59766Z" fill="black"/>
<path fill-rule="evenodd" clip-rule="evenodd" d="M27.2256 10.2797C27.3963 10.2797 27.5674 10.2797 27.7372 10.2797C27.8098 10.636 27.6209 10.7309 27.5674 10.962C27.2674 10.9206 27.1786 10.6685 27.2256 10.2797Z" fill="black"/>
<path fill-rule="evenodd" clip-rule="evenodd" d="M29.2718 11.6436C29.2718 11.8139 29.2718 11.985 29.2718 12.1552C28.9694 12.1163 28.4188 12.3271 28.5899 11.8143C28.7415 11.6817 28.9755 11.631 29.2718 11.6436Z" fill="black"/>
<path fill-rule="evenodd" clip-rule="evenodd" d="M5.23378 11.9849C5.50907 11.9366 5.52731 12.1454 5.74503 12.1552C5.79611 12.6044 5.50907 12.7147 5.0635 12.6664C4.99093 12.31 5.17986 12.2148 5.23378 11.9849Z" fill="black"/>
<path fill-rule="evenodd" clip-rule="evenodd" d="M11.0302 11.9849C11.1093 12.5185 10.8818 12.7459 10.3483 12.6664C10.2688 12.1329 10.4962 11.9055 11.0302 11.9849Z" fill="black"/>
<path fill-rule="evenodd" clip-rule="evenodd" d="M18.7019 11.9848C19.2147 11.8129 19.0039 12.3643 19.0424 12.6663C18.8726 12.6663 18.7019 12.6663 18.5312 12.6663C18.459 12.3099 18.6488 12.2147 18.7019 11.9848Z" fill="black"/>
<path fill-rule="evenodd" clip-rule="evenodd" d="M28.0786 12.1547C28.1268 12.6002 28.0162 12.8881 27.5673 12.8366C27.4769 12.6996 27.3894 12.5597 27.3963 12.3254C27.5483 12.1932 27.7814 12.1421 28.0786 12.1547Z" fill="black"/>
<path fill-rule="evenodd" clip-rule="evenodd" d="M26.0328 12.6665C26.1042 13.9886 25.5297 14.6636 24.1569 14.542C23.0541 13.3395 24.7715 11.5041 26.0328 12.6665ZM25.5216 13.1777C25.5982 12.8992 24.5923 12.8992 24.6686 13.1777C24.6892 13.4206 25.6031 13.8803 25.5216 13.1777Z" fill="black"/>
<path fill-rule="evenodd" clip-rule="evenodd" d="M22.2822 13.0077C22.0543 13.0077 21.8281 13.0077 21.5994 13.0077C21.466 12.3509 22.4164 12.3509 22.2822 13.0077Z" fill="black"/>
<path fill-rule="evenodd" clip-rule="evenodd" d="M5.74503 13.3484C5.91531 13.3484 6.0864 13.3484 6.25668 13.3484C6.30452 13.7944 6.19465 14.0818 5.74503 14.0307C5.46082 13.6918 5.76044 13.8138 5.74503 13.3484Z" fill="black"/>
<path fill-rule="evenodd" clip-rule="evenodd" d="M10.1776 13.3484C10.6844 13.3634 10.6337 14.3652 10.0069 14.201C9.95299 13.8057 10.0345 13.5462 10.1776 13.3484Z" fill="black"/>
<path fill-rule="evenodd" clip-rule="evenodd" d="M20.0653 13.3484C20.1131 13.7943 20.0036 14.0818 19.5536 14.0307C19.5058 13.5843 19.6165 13.2969 20.0653 13.3484Z" fill="black"/>
<path fill-rule="evenodd" clip-rule="evenodd" d="M30.6357 13.3483C31.2925 13.2142 31.2925 14.1645 30.6357 14.0307C30.6357 13.8028 30.6357 13.5758 30.6357 13.3483Z" fill="black"/>
<path fill-rule="evenodd" clip-rule="evenodd" d="M28.5903 14.7123C28.7606 14.7123 28.9309 14.7123 29.102 14.7123C29.1498 15.1583 29.0395 15.4457 28.5903 15.3942C28.5903 15.1672 28.5903 14.9397 28.5903 14.7123Z" fill="black"/>
<path fill-rule="evenodd" clip-rule="evenodd" d="M24.8392 15.7352C25.067 15.7352 25.2941 15.7352 25.5219 15.7352C25.5004 16.169 25.2734 16.3965 24.8392 16.4172C24.8392 16.1901 24.8392 15.9627 24.8392 15.7352Z" fill="black"/>
<path fill-rule="evenodd" clip-rule="evenodd" d="M6.59762 15.9054C7.30956 16.0193 6.67668 16.964 6.25665 16.4166C6.31666 16.1928 6.55627 16.1491 6.59762 15.9054Z" fill="black"/>
<path fill-rule="evenodd" clip-rule="evenodd" d="M3.86946 16.076C4.83966 16.7681 2.8794 17.2145 3.86946 16.076Z" fill="black"/>
<path fill-rule="evenodd" clip-rule="evenodd" d="M5.57476 16.4171C5.85004 16.3693 5.86829 16.5785 6.08641 16.5878C6.13749 17.037 5.85004 17.1473 5.40407 17.0995C5.3319 16.7427 5.52124 16.6478 5.57476 16.4171Z" fill="black"/>
<path fill-rule="evenodd" clip-rule="evenodd" d="M7.27963 17.9512C7.81399 18.0687 7.50181 18.4057 7.44991 18.8042C6.68811 18.8322 7.01002 18.2038 7.27963 17.9512Z" fill="black"/>
<path fill-rule="evenodd" clip-rule="evenodd" d="M26.3738 18.1219C26.4224 18.5675 26.3117 18.8553 25.8621 18.8043C25.8139 18.3579 25.9245 18.0704 26.3738 18.1219Z" fill="black"/>
<path fill-rule="evenodd" clip-rule="evenodd" d="M27.908 18.2925C28.0219 18.2925 28.1358 18.2925 28.249 18.2925C28.2181 18.4372 28.3154 18.453 28.4196 18.4628C28.4196 18.5759 28.4196 18.6902 28.4196 18.8041C28.2753 18.7721 28.2591 18.8702 28.249 18.974C28.1358 18.974 28.0219 18.974 27.908 18.974C27.9392 18.8289 27.8419 18.8135 27.7373 18.8041C27.7373 18.6902 27.7373 18.5759 27.7373 18.4628C27.8824 18.4944 27.8983 18.3959 27.908 18.2925Z" fill="black"/>
<path fill-rule="evenodd" clip-rule="evenodd" d="M21.4296 19.6564C21.8784 19.6045 21.9891 19.8924 21.9412 20.3384C21.7138 20.3384 21.4863 20.3384 21.2589 20.3384C21.2378 20.0318 21.4673 19.9779 21.4296 19.6564Z" fill="black"/>
<path fill-rule="evenodd" clip-rule="evenodd" d="M19.5536 19.9969C19.8545 20.0379 19.9433 20.2909 19.895 20.6793C19.7247 20.6793 19.5536 20.6793 19.3838 20.6793C19.3116 20.3225 19.5005 20.2284 19.5536 19.9969Z" fill="black"/>
<path fill-rule="evenodd" clip-rule="evenodd" d="M26.7144 20.6793C26.8904 21.3746 25.9181 21.5879 26.0329 20.85C26.1837 20.7174 26.418 20.6663 26.7144 20.6793Z" fill="black"/>
<path fill-rule="evenodd" clip-rule="evenodd" d="M4.21089 22.7252C4.66011 22.6737 4.77039 22.9615 4.72214 23.4079C4.49469 23.4079 4.26725 23.4079 4.04061 23.4079C3.96804 23.0507 4.15697 22.9555 4.21089 22.7252Z" fill="black"/>
<path fill-rule="evenodd" clip-rule="evenodd" d="M10.8595 22.8963C10.8388 23.3289 10.6118 23.5572 10.178 23.5774C9.64688 23.1079 10.39 22.3648 10.8595 22.8963Z" fill="black"/>
<path fill-rule="evenodd" clip-rule="evenodd" d="M7.96153 23.2368C8.08032 23.8669 7.69151 23.9897 7.10931 23.9192C7.10931 23.7485 7.10931 23.5774 7.10931 23.4079C7.30676 23.2636 7.56623 23.1825 7.96153 23.2368Z" fill="black"/>
<path fill-rule="evenodd" clip-rule="evenodd" d="M23.3046 23.9188C23.0768 23.9188 22.8506 23.9188 22.6223 23.9188C22.4893 23.2624 23.4388 23.2624 23.3046 23.9188Z" fill="black"/>
<path fill-rule="evenodd" clip-rule="evenodd" d="M23.6452 24.0886C23.6452 24.2593 23.6452 24.4304 23.6452 24.6003C23.102 24.4993 23.1182 24.9198 22.793 24.6003C22.9495 24.3015 23.1109 24.0084 23.6452 24.0886Z" fill="black"/>
<path fill-rule="evenodd" clip-rule="evenodd" d="M9.83667 24.9422C9.83667 25.1688 9.83667 25.3967 9.83667 25.6233C9.60922 25.6233 9.38178 25.6233 9.15514 25.6233C9.07568 25.0902 9.30312 24.8619 9.83667 24.9422Z" fill="black"/>
<path fill-rule="evenodd" clip-rule="evenodd" d="M7.96151 25.9646C7.8861 26.7418 7.4077 27.1152 6.93861 27.4992C6.02234 27.0755 5.88003 26.8201 5.9153 25.6228C6.38033 24.7187 7.69271 25.2442 7.96151 25.9646ZM6.76792 26.6461C7.39472 26.8103 7.44581 25.8097 6.93861 25.7939C7.00835 26.2046 6.62683 26.1645 6.76792 26.6461Z" fill="black"/>
<path fill-rule="evenodd" clip-rule="evenodd" d="M11.0303 27.4992C11.4762 27.451 11.7637 27.5609 11.7122 28.0105C11.5606 28.1431 11.327 28.1937 11.0303 28.1808C11.0303 27.9537 11.0303 27.7255 11.0303 27.4992Z" fill="black"/>
<path fill-rule="evenodd" clip-rule="evenodd" d="M28.2489 27.4992C28.525 27.4509 28.5425 27.6597 28.7606 27.669C28.8121 28.1179 28.525 28.2281 28.0786 28.1807C28.0057 27.8243 28.195 27.7295 28.2489 27.4992Z" fill="black"/>
<path fill-rule="evenodd" clip-rule="evenodd" d="M5.5747 28.522C5.09264 28.3809 5.13318 28.762 4.72208 28.6923C4.43544 27.8822 5.70322 27.7517 5.5747 28.522Z" fill="black"/>
<path fill-rule="evenodd" clip-rule="evenodd" d="M16.8267 28.5221C17.1263 28.563 17.2151 28.8148 17.1673 29.2036C16.997 29.2036 16.8267 29.2036 16.6556 29.2036C16.5839 28.8473 16.7732 28.7524 16.8267 28.5221Z" fill="black"/>
<path fill-rule="evenodd" clip-rule="evenodd" d="M31.1473 28.522C31.2884 29.0036 30.9065 28.9639 30.9762 29.3742C30.7273 29.2254 30.3162 29.2384 30.465 28.6922C30.617 28.5597 30.8501 28.5086 31.1473 28.522Z" fill="black"/>
<path fill-rule="evenodd" clip-rule="evenodd" d="M18.0195 28.6922C18.1606 29.1743 17.7794 29.1333 17.8492 29.5452C17.342 29.5294 17.3935 28.5276 18.0195 28.6922Z" fill="black"/>
<path fill-rule="evenodd" clip-rule="evenodd" d="M11.7122 29.8855C11.9822 29.8993 12.3625 29.8036 12.3941 30.0562C12.5802 30.6546 11.3481 30.5127 11.7122 29.8855Z" fill="black"/>
<path fill-rule="evenodd" clip-rule="evenodd" d="M22.2822 29.8855C22.5656 30.224 22.2668 30.102 22.2822 30.5678C21.6262 30.7012 21.6262 29.7513 22.2822 29.8855Z" fill="black"/>
<path fill-rule="evenodd" clip-rule="evenodd" d="M4.5519 30.2265C4.44892 30.5788 4.28837 30.8723 3.69928 30.7381C3.69928 30.5678 3.69928 30.3971 3.69928 30.2265C3.92348 30.0075 4.3277 30.0075 4.5519 30.2265Z" fill="black"/>
<path fill-rule="evenodd" clip-rule="evenodd" d="M9.49572 30.2264C9.54721 30.6752 9.25935 30.7855 8.81378 30.738C8.7627 30.2884 9.05015 30.1785 9.49572 30.2264Z" fill="black"/>
<path fill-rule="evenodd" clip-rule="evenodd" d="M30.4654 30.2264C30.9113 30.1785 31.1984 30.2884 31.1477 30.738C30.8274 31.0725 30.3267 30.8366 30.4654 30.2264Z" fill="black"/>
<path fill-rule="evenodd" clip-rule="evenodd" d="M18.1902 30.7376C18.8462 30.6038 18.8462 31.5541 18.1902 31.4195C17.906 31.0806 18.2052 31.2026 18.1902 30.7376Z" fill="black"/>
<path fill-rule="evenodd" clip-rule="evenodd" d="M5.74508 31.0791C5.79333 31.5246 5.68305 31.8125 5.23384 31.7606C5.18559 31.3146 5.29587 31.0276 5.74508 31.0791Z" fill="black"/>
<path fill-rule="evenodd" clip-rule="evenodd" d="M19.5536 31.2493C20.0669 31.0774 19.8561 31.6292 19.895 31.9312C19.7247 31.9312 19.5536 31.9312 19.3838 31.9312C19.3116 31.5744 19.5005 31.48 19.5536 31.2493Z" fill="black"/>
<path fill-rule="evenodd" clip-rule="evenodd" d="M1.48313 31.5908C2.02113 31.6204 2.49995 31.71 2.50603 32.2723C2.13344 32.5947 1.4215 32.2229 1.48313 31.5908Z" fill="black"/>
<path fill-rule="evenodd" clip-rule="evenodd" d="M14.2693 31.5908C14.4963 31.5908 14.7238 31.5908 14.9512 31.5908C15.0303 32.1236 14.8028 32.3514 14.2693 32.2723C14.2693 32.0453 14.2693 31.8175 14.2693 31.5908Z" fill="black"/>
<path fill-rule="evenodd" clip-rule="evenodd" d="M24.6685 31.5908C25.3808 31.7039 24.7484 32.6486 24.3279 32.1021C24.3879 31.8787 24.6276 31.8333 24.6685 31.5908Z" fill="black"/>
<path fill-rule="evenodd" clip-rule="evenodd" d="M21.9412 32.6133C22.2493 32.9056 21.8889 33.283 21.4295 33.2952C21.3817 32.8488 21.4924 32.5618 21.9412 32.6133Z" fill="black"/>
<path fill-rule="evenodd" clip-rule="evenodd" d="M10.5186 32.7835C10.9678 32.7328 11.0781 33.0191 11.0303 33.4654C10.8032 33.4654 10.5758 33.4654 10.3483 33.4654C10.2758 33.1087 10.4651 33.015 10.5186 32.7835Z" fill="black"/>
<path fill-rule="evenodd" clip-rule="evenodd" d="M22.7934 29.8855C20.9515 25.8053 26.731 25.1387 26.7143 28.5221C26.7054 30.4706 24.4172 30.9891 22.7934 29.8855ZM23.134 28.1807C23.8289 27.8523 24.5814 27.5815 25.3509 27.3281C24.5477 26.4892 23.2649 27.3005 23.134 28.1807Z" fill="black"/>
<path fill-rule="evenodd" clip-rule="evenodd" d="M23.134 1.92615C26.3381 2.42321 29.9286 -1.06755 32.3405 1.07353C34.7901 3.24745 30.5278 6.63401 29.4425 8.23385C31.453 10.5639 33.3577 11.3674 33.0225 14.8829C32.8141 17.0791 30.6527 18.621 30.2947 20.5087C29.6107 24.1154 31.7818 26.0039 33.1931 28.3513C33.0014 29.6361 33.5986 32.2767 32.5108 33.1249C30.4545 33.6653 29.4936 32.0452 27.9075 31.5907C26.0425 32.6846 24.0936 34.6156 21.599 34.3181C20.0637 34.1352 18.883 32.704 17.3375 32.6136C15.0294 32.4786 14.0264 33.9986 11.8821 35C9.59665 34.9627 8.21372 33.0616 6.08561 32.9542C4.15211 32.8581 1.95508 35.0361 0.118481 33.1253C-0.504667 30.2556 1.48397 28.7564 2.50525 26.9879C2.57823 25.9848 1.67452 25.5972 1.65263 24.771C1.59466 22.5731 4.5316 20.2541 2.67553 17.6107C-0.927531 16.7949 2.50525 13.4858 2.50525 11.3026C2.50525 8.70942 -0.736573 7.49596 0.288762 3.97195C0.653244 2.72079 2.00738 0.557414 3.35747 0.561874C4.14563 0.564712 4.90703 1.29124 5.74424 1.4145C7.86505 1.72668 10.0479 -0.345886 11.8829 0.0506253C13.4653 0.392809 14.075 2.17752 16.3155 2.09643C18.3264 1.1011 21.7774 -1.16851 23.134 1.92615ZM10.8596 1.4145C10.3224 1.44004 10.7878 0.46376 10.0073 0.73256C8.35157 1.27584 7.43327 2.13454 5.57477 1.92574C4.49105 1.80411 3.33679 0.836756 2.33538 1.41409C1.75237 2.83796 0.402688 3.91154 0.63054 5.67639C0.813795 7.09175 2.15415 8.48562 3.01731 9.08647C2.70027 9.86895 3.07042 10.2951 3.01731 10.962C2.87744 12.7167 1.32383 14.499 1.48276 15.5648C1.66966 16.8164 3.2776 16.9903 4.04021 18.1223C3.88088 18.3048 3.41099 18.1754 3.52856 18.634C4.09414 20.9988 2.68445 22.7629 2.33497 24.7714C4.6885 27.9994 -0.585348 29.1225 0.800416 32.9546C1.33153 33.0483 1.9117 33.0937 2.33497 33.296C2.23159 32.6246 2.71648 32.5411 3.18759 32.4434C3.18759 32.7276 3.18759 33.0114 3.18759 33.296C6.26684 31.0912 9.05702 33.9175 12.0527 34.3185C13.9461 33.3912 15.2857 31.6986 17.8492 31.9317C19.4012 32.0728 20.8526 33.5923 22.2822 33.6369C24.3353 33.6994 26.467 31.137 27.9079 31.0795C29.6412 31.0097 30.3061 33.1906 32.3405 32.6136C33.9797 28.9177 30.3251 26.7714 29.7831 23.7485C28.9783 19.2535 32.9361 17.4862 32.5112 13.5194C32.4293 12.7576 32.021 12.0518 31.659 10.9624C30.6576 10.0279 29.0237 10.0299 28.9308 8.57522C28.7889 6.36481 34.988 4.01979 31.4883 1.24462C28.5631 0.932438 26.555 2.22738 22.9649 2.60808C22.4549 0.949061 19.2487 -0.178849 18.5311 2.09643C17.76 1.7956 16.9698 2.57524 15.9741 2.60768C14.1253 2.6689 12.6289 1.23367 11.3708 0.561874C11.1336 0.779185 11.297 1.39706 10.8596 1.4145Z" fill="black"/>
</svg>
