<svg width="35" height="35" viewBox="0 0 35 35" fill="none" xmlns="http://www.w3.org/2000/svg">
<path fill-rule="evenodd" clip-rule="evenodd" d="M8.22494 0C8.85546 2.99918 13.083 3.50416 14.3496 0.699943C15.5844 3.20707 20.8546 3.62687 21.5243 0.350375C21.9465 1.50322 23.2184 1.80597 23.9749 2.62499C26.2313 2.66536 27.3612 1.5779 28.3493 0.350375C28.5653 2.82319 32.6652 2.68756 33.2493 0.699943C33.19 2.66657 31.7247 6.9292 34.1241 8.04975C32.7871 9.32249 31.849 11.5882 32.8998 13.8245C33.2158 14.1506 33.542 14.4659 34.2997 14.3496C33.4217 16.4576 32.1857 19.6658 34.1241 20.8251C33.5125 21.915 32.3092 22.7966 32.3746 24.3249C32.4263 25.5306 33.2966 26.2778 33.9497 27.125C33.0108 28.1217 32.4444 29.9902 32.8994 31.8499C33.129 32.6116 34.0357 32.6971 33.9497 33.7749C33.234 33.9888 33.1218 33.4043 32.3746 33.9505C31.8527 32.7214 30.8149 32.0097 28.8741 32.2002C28.1447 32.5199 28.3788 33.8052 27.8242 34.3001C26.8449 33.9957 26.8235 32.7347 25.8991 32.375C23.7387 32.3722 22.4309 33.2223 21.6995 34.6496C20.8239 34.0082 20.3472 32.9688 19.2497 32.5498C17.5539 32.7205 16.3231 33.3567 15.5748 34.4752C14.6645 31.8151 10.7922 31.9964 9.79961 34.4752C8.43363 34.2516 8.04935 33.0552 6.82465 32.9006C4.75631 32.637 3.18002 34.669 1.2247 35C1.35104 34.4647 1.04588 34.3618 1.04992 33.9501C2.90472 33.9037 3.75887 32.2301 2.79977 30.7999C2.09943 30.5057 1.75995 30.6469 1.2247 30.4496C2.28753 29.2123 4.40109 26.8752 2.79977 25.0252C2.33395 24.4859 1.62069 24.4617 0.699943 24.1497C2.86274 22.4741 3.77219 17.3234 0.875131 15.7499C2.88172 14.4837 2.83287 9.95179 0 9.45004C1.76399 8.53657 3.40607 3.58287 0.525159 2.62539C0.136437 1.92545 0.628092 1.42612 0.875131 0.875535C2.56162 0.469858 3.59902 2.5705 5.24998 2.45061C6.66803 2.34606 7.13345 0.927607 8.22494 0ZM1.74986 1.92545C3.10857 3.8283 2.64275 7.2497 1.40029 8.92489C3.0678 10.2941 3.35602 13.8685 1.92505 15.5752C4.04829 17.482 3.54735 21.5477 1.92505 23.6245C4.72563 24.3527 4.10278 28.2169 2.62499 29.9244C3.93486 30.0951 4.06242 32.2301 3.50012 33.2493C5.04452 31.9601 8.34806 31.8276 9.45004 33.5989C11.1208 33.1698 11.2778 31.227 13.8249 31.6743C14.5967 32.1861 15.0988 32.9664 15.7499 33.5989C17.0376 32.4981 17.7218 31.3594 19.7748 31.8494C20.5006 32.0226 21.358 33.607 21.8746 33.5989C22.4773 33.5904 23.3201 31.8434 24.3245 31.6743C26.2923 31.3408 26.6863 32.2483 27.6494 32.8994C28.1059 30.4907 30.9828 31.252 32.3742 32.3742C31.4825 30.6256 32.4287 28.422 32.8994 26.9494C30.8754 25.2961 32.0061 22.1463 33.4245 20.6495C31.4119 19.8099 32.7823 16.5169 33.2489 15.05C31.1366 13.8963 31.363 9.62765 33.0737 8.22494C31.8878 7.29411 31.6763 4.17948 32.3742 2.4498C30.6659 3.00847 28.6145 2.93096 27.8242 1.74986C26.5038 3.35077 22.5326 3.71769 21.5243 1.57427C20.1938 3.74151 15.5861 4.21298 14.1749 1.74986C13.1718 2.56565 11.9882 3.53887 10.5 3.32453C9.12591 3.12714 8.56886 1.7878 7.70019 1.04951C7.0503 3.45572 3.46218 3.25389 1.74986 1.92545Z" fill="black"/>
<path fill-rule="evenodd" clip-rule="evenodd" d="M27.299 4.19995C27.4746 4.19995 27.6494 4.19995 27.8242 4.19995C28.0627 5.06943 28.1269 6.11491 28.1745 7.17572C28.9923 7.67989 29.9482 7.02354 30.9743 7.17572C31.3933 8.81942 29.2733 7.9241 28.5245 8.40002C28.6581 9.35023 28.309 9.81766 28.3493 10.6754C27.6361 10.7202 27.4855 11.3277 26.5999 11.2002C26.7981 10.2903 26.9502 9.33449 27.1246 8.40002C25.9996 8.55825 25.1055 8.94738 23.7997 8.92517C24.0778 7.51116 26.0481 7.7909 27.2994 7.3501C27.0322 6.56256 27.0322 4.98749 27.299 4.19995Z" fill="black"/>
<path fill-rule="evenodd" clip-rule="evenodd" d="M19.9492 21.875C18.3172 20.7072 15.6373 20.5865 15.2243 18.2001C12.1739 17.7645 9.13072 15.7547 9.79958 12.5993C10.4902 9.3406 16.0022 8.26525 19.424 8.92443C20.8336 8.58374 20.8453 6.84518 22.049 6.29944C22.7336 7.73565 22.003 9.39711 21.1743 10.3247C23.4255 13.5059 22.246 18.5129 18.0241 18.5493C18.7051 20.4368 23.0589 21.3741 24.1488 23.7992C25.1931 26.1207 24.3115 28.8066 22.3994 29.9239C18.4823 30.7369 12.2022 31.0647 9.97436 27.9989C6.58928 23.3399 14.9414 19.1656 19.9492 21.875ZM13.6497 14.8752C16.3933 17.3831 23.7835 15.3168 19.9492 10.8507C16.6537 9.0532 10.372 11.878 13.6497 14.8752ZM12.2494 26.5998C12.4807 28.3925 15.9251 28.849 18.3741 28.7C19.6698 28.6201 21.8322 28.1285 22.049 27.2994C22.665 24.9444 16.7607 23.6915 14.6996 24.1492C13.3118 24.4584 12.0262 24.8669 12.2494 26.5998Z" fill="black"/>
</svg>
