<svg width="35" height="35" viewBox="0 0 35 35" fill="none" xmlns="http://www.w3.org/2000/svg">
<path d="M17.5712 34.578C17.6828 34.7009 17.829 34.7623 17.9752 34.7623C18.1214 34.7623 18.2676 34.7009 18.3792 34.578L31.9959 19.5844C33.9228 17.4627 34.9842 14.6423 34.9842 11.6431C34.9842 8.64361 33.9228 5.82322 31.9959 3.70147C30.0713 1.58188 27.5099 0.414398 24.7833 0.414398C22.2442 0.414398 19.8474 1.42734 17.9752 3.27964C13.9752 -0.673203 7.79885 -0.531876 3.95453 3.70147C-0.022604 8.08045 -0.022604 15.2055 3.95453 19.5844L17.5712 34.578ZM4.76257 4.59122C6.52876 2.64705 8.84741 1.67528 11.1672 1.67528C13.4864 1.67528 15.8056 2.64736 17.5712 4.59122C17.7855 4.82717 18.165 4.82717 18.3792 4.59122C20.0885 2.70942 22.3625 1.67282 24.7833 1.67282C27.2046 1.67282 29.4786 2.70942 31.1879 4.59122C32.8988 6.47547 33.8414 8.97972 33.8414 11.6431C33.8414 14.3062 32.8988 16.8104 31.1879 18.6947L17.9752 33.2434L4.76257 18.6947C1.23131 14.8064 1.23131 8.47955 4.76257 4.59122Z" fill="black"/>
</svg>
