<svg width="35" height="35" viewBox="0 0 35 35" fill="none" xmlns="http://www.w3.org/2000/svg">
<path d="M6.09744 0.091156C4.73749 0.091156 3.43224 0.497604 2.47061 1.21721C1.50898 1.93679 0.97168 2.91355 0.97168 3.93122V34.1558C0.973422 34.2183 1.00291 34.2786 1.0555 34.3272C1.10809 34.3757 1.18078 34.4098 1.26212 34.4241C1.34346 34.4383 1.42883 34.4319 1.50475 34.4058C1.58068 34.3798 1.64285 34.3355 1.68147 34.2801L3.71972 31.2296L5.75945 34.2801C5.79023 34.3277 5.83834 34.3679 5.89825 34.396C5.95816 34.4242 6.02745 34.4391 6.09818 34.4391C6.1689 34.4391 6.23819 34.4242 6.2981 34.396C6.35802 34.3679 6.40612 34.3277 6.43691 34.2801L8.47516 31.2296L10.5134 34.2801C10.5448 34.3266 10.5928 34.3656 10.6521 34.3929C10.7114 34.4202 10.7796 34.4346 10.8492 34.4346C10.9188 34.4346 10.987 34.4202 11.0463 34.3929C11.1056 34.3656 11.1536 34.3266 11.185 34.2801L13.2232 31.2296L15.2615 34.2801C15.2923 34.3277 15.3404 34.3679 15.4003 34.396C15.4602 34.4242 15.5295 34.4391 15.6002 34.4391C15.671 34.4391 15.7402 34.4242 15.8002 34.396C15.8601 34.3679 15.9082 34.3277 15.939 34.2801L17.9787 31.2296L20.0169 34.2801C20.0483 34.3266 20.0963 34.3656 20.1556 34.3929C20.2149 34.4202 20.2831 34.4346 20.3527 34.4346C20.4223 34.4346 20.4906 34.4202 20.5498 34.3929C20.6091 34.3656 20.6571 34.3266 20.6885 34.2801L22.7326 31.2296L24.7709 34.2801C24.8091 34.3361 24.8713 34.3809 24.9476 34.4074C25.0238 34.4339 25.1097 34.4405 25.1915 34.4262C25.2733 34.4119 25.3464 34.3775 25.3991 34.3285C25.4518 34.2795 25.481 34.2187 25.4822 34.1558V12.887L27.4807 9.89586L29.519 12.9464C29.5502 12.9931 29.5983 13.0325 29.6577 13.0599C29.7172 13.0874 29.7856 13.102 29.8555 13.102C29.9254 13.102 29.9939 13.0874 30.0533 13.0599C30.1128 13.0325 30.1608 12.9931 30.192 12.9464L32.2303 9.89146L34.2744 12.9464C34.3131 13.0019 34.3754 13.0461 34.4515 13.0722C34.5275 13.0982 34.613 13.1046 34.6944 13.0902C34.7759 13.0758 34.8485 13.0415 34.901 12.9928C34.9535 12.944 34.9828 12.8836 34.9842 12.821V3.93124C34.9842 2.56068 34.0046 1.29109 32.4184 0.605813C31.6262 0.263567 30.7426 0.0926456 29.8585 0.0922625L6.09744 0.091156ZM29.8585 0.654183C30.614 0.654183 31.3694 0.800376 32.0466 1.09296C33.401 1.67811 34.2347 2.7609 34.2347 3.93122V11.6289L32.5683 9.13927C32.5369 9.09279 32.4889 9.05374 32.4296 9.02645C32.3703 8.99917 32.3021 8.98472 32.2325 8.98472C32.1629 8.98472 32.0947 8.99917 32.0354 9.02645C31.9761 9.05374 31.9281 9.09279 31.8967 9.13927L29.8585 12.1898L27.8202 9.13927C27.7894 9.09162 27.7413 9.05144 27.6814 9.02331C27.6215 8.99519 27.5522 8.98028 27.4815 8.98028C27.4108 8.98028 27.3415 8.99519 27.2815 9.02331C27.2216 9.05144 27.1735 9.09162 27.1427 9.13927L25.4822 11.6267V3.93122C25.4822 2.7609 26.3159 1.67811 27.6703 1.09296C28.2969 0.822252 28.9908 0.676612 29.6895 0.656375H29.8585L29.8585 0.654183ZM6.09744 0.656311H27.1795C25.6604 1.35225 24.7312 2.59354 24.7312 3.93116V32.967L23.0662 30.4729C23.035 30.4261 22.987 30.3868 22.9275 30.3593C22.8681 30.3318 22.7996 30.3173 22.7297 30.3173C22.6598 30.3173 22.5913 30.3318 22.5319 30.3593C22.4725 30.3868 22.4244 30.4261 22.3932 30.4729L20.3549 33.5279L18.3108 30.473C18.2794 30.4265 18.2314 30.3874 18.1721 30.3602C18.1128 30.3329 18.0446 30.3184 17.975 30.3184C17.9054 30.3184 17.8372 30.3329 17.7779 30.3602C17.7186 30.3874 17.6706 30.4265 17.6392 30.473L15.601 33.5235L13.5627 30.473C13.5315 30.4262 13.4834 30.3869 13.424 30.3594C13.3646 30.3319 13.2961 30.3173 13.2262 30.3173C13.1563 30.3173 13.0878 30.3319 13.0284 30.3594C12.9689 30.3869 12.9209 30.4262 12.8897 30.473L10.847 33.5279L8.80874 30.473C8.7775 30.4262 8.72946 30.3869 8.67003 30.3594C8.61059 30.3319 8.54209 30.3173 8.47222 30.3173C8.40234 30.3173 8.33385 30.3319 8.27441 30.3594C8.21497 30.3869 8.16694 30.4262 8.13569 30.473L6.09744 33.5235L4.05919 30.473C4.02779 30.4265 3.97979 30.3874 3.92051 30.3602C3.86123 30.3329 3.79299 30.3184 3.7234 30.3184C3.6538 30.3184 3.58557 30.3329 3.52629 30.3602C3.46701 30.3874 3.419 30.4265 3.38761 30.473L1.72115 32.967V3.93122C1.72115 3.06266 2.18333 2.23056 3.00406 1.6164C3.82479 1.00224 4.93675 0.656311 6.09744 0.656311ZM6.09744 8.98086C5.23738 8.98086 4.53091 9.50952 4.53091 10.1531V11.9324C4.53091 12.576 5.23738 13.1002 6.09744 13.1002H8.47516C9.33522 13.1002 10.0358 12.576 10.0358 11.9324V10.1531C10.0358 9.50952 9.33522 8.98086 8.47516 8.98086H6.09744ZM19.1631 9.42404C19.1011 9.42416 19.04 9.43576 18.9854 9.45782C18.9308 9.47987 18.8843 9.51169 18.8501 9.55044L16.7898 11.8697L14.7281 9.55044C14.6933 9.51177 14.6462 9.48018 14.591 9.45848C14.5359 9.43679 14.4744 9.42569 14.4121 9.42617C14.3506 9.42623 14.29 9.4376 14.2356 9.45926C14.1813 9.48093 14.1349 9.51224 14.1006 9.55044L11.7243 12.2183C11.6968 12.2491 11.6776 12.2838 11.668 12.3202C11.6584 12.3566 11.6585 12.3941 11.6684 12.4305C11.6782 12.4669 11.6976 12.5014 11.7253 12.5322C11.7531 12.563 11.7887 12.5893 11.8301 12.6097C11.8713 12.6302 11.9175 12.6444 11.966 12.6515C12.0145 12.6586 12.0644 12.6584 12.1129 12.6511C12.1613 12.6437 12.2074 12.6293 12.2484 12.6086C12.2894 12.5879 12.3245 12.5614 12.3518 12.5306L14.4121 10.2202L16.4783 12.5306C16.5128 12.5685 16.5592 12.5994 16.6133 12.6209C16.6675 12.6423 16.7278 12.6535 16.7891 12.6535C16.8504 12.6535 16.9107 12.6423 16.9649 12.6209C17.019 12.5994 17.0654 12.5685 17.0999 12.5306L19.1661 10.2202L21.2278 12.5306C21.2551 12.5614 21.2903 12.5879 21.3313 12.6086C21.3723 12.6293 21.4183 12.6437 21.4668 12.6511C21.5152 12.6584 21.5651 12.6586 21.6136 12.6515C21.6622 12.6444 21.7083 12.6302 21.7495 12.6097C21.791 12.5893 21.8266 12.563 21.8543 12.5322C21.8821 12.5014 21.9015 12.4669 21.9113 12.4305C21.9211 12.3941 21.9212 12.3566 21.9116 12.3202C21.902 12.2838 21.8829 12.2491 21.8554 12.2183L19.4776 9.55055C19.4433 9.51164 19.3966 9.47972 19.3417 9.45766C19.2868 9.4356 19.2254 9.42398 19.1631 9.42404ZM6.09744 9.54619H8.47516C8.9314 9.54619 9.28635 9.81178 9.28635 10.1532V11.9325C9.28635 12.2739 8.9314 12.5384 8.47516 12.5384H6.09744C5.6412 12.5384 5.28625 12.2739 5.28625 11.9325V10.1532C5.28625 9.81178 5.6412 9.54619 6.09744 9.54619ZM6.09744 15.2073C5.23738 15.2073 4.53091 15.7316 4.53091 16.3752V18.1544C4.53091 18.798 5.23738 19.3256 6.09744 19.3256H8.47516C9.33522 19.3256 10.0358 18.798 10.0358 18.1544V16.3752C10.0358 15.7316 9.33522 15.2073 8.47516 15.2073H6.09744ZM19.1631 15.6505C19.1011 15.6506 19.04 15.6622 18.9854 15.6843C18.9308 15.7063 18.8843 15.7381 18.8501 15.7769L16.7898 18.0917L14.7281 15.7769C14.6934 15.738 14.6464 15.7062 14.5913 15.6843C14.5361 15.6625 14.4745 15.6512 14.4121 15.6516C14.3504 15.6517 14.2898 15.6633 14.2354 15.6851C14.1811 15.707 14.1348 15.7385 14.1006 15.7769L11.7243 18.4403C11.6968 18.4712 11.6776 18.5058 11.668 18.5422C11.6584 18.5787 11.6586 18.6161 11.6684 18.6525C11.6782 18.6889 11.6976 18.7235 11.7253 18.7542C11.7531 18.785 11.7887 18.8114 11.8301 18.8318C11.8713 18.8522 11.9175 18.8664 11.966 18.8735C12.0145 18.8806 12.0644 18.8805 12.1129 18.8731C12.1613 18.8658 12.2074 18.8513 12.2484 18.8307C12.2894 18.81 12.3245 18.7835 12.3518 18.7526L14.4121 16.4411L16.4783 18.7526C16.5128 18.7905 16.5592 18.8215 16.6133 18.8429C16.6675 18.8643 16.7278 18.8755 16.7891 18.8755C16.8504 18.8755 16.9107 18.8643 16.9649 18.8429C17.019 18.8215 17.0654 18.7905 17.0999 18.7526L19.1661 16.4411L21.2278 18.7526C21.2551 18.7835 21.2903 18.81 21.3313 18.8307C21.3723 18.8513 21.4183 18.8658 21.4668 18.8731C21.5152 18.8805 21.5651 18.8806 21.6136 18.8735C21.6622 18.8664 21.7083 18.8522 21.7495 18.8318C21.791 18.8114 21.8266 18.785 21.8543 18.7542C21.8821 18.7235 21.9014 18.6889 21.9113 18.6525C21.9211 18.6161 21.9212 18.5787 21.9116 18.5422C21.902 18.5058 21.8829 18.4712 21.8554 18.4403L19.4776 15.7769C19.4433 15.738 19.3966 15.7061 19.3417 15.684C19.2868 15.662 19.2254 15.6504 19.1631 15.6505ZM6.09744 15.7682H8.47516C8.9314 15.7682 9.28635 16.0338 9.28635 16.3752V18.1545C9.28635 18.4959 8.9314 18.7604 8.47516 18.7604H6.09744C5.6412 18.7604 5.28625 18.4959 5.28625 18.1545V16.3752C5.28625 16.0338 5.6412 15.7682 6.09744 15.7682ZM6.09744 21.4293C5.23738 21.4293 4.53091 21.9536 4.53091 22.5972V24.3764C4.53091 25.02 5.23738 25.5476 6.09744 25.5476H8.47516C9.33522 25.5476 10.0358 25.02 10.0358 24.3764V22.5972C10.0358 21.9536 9.33522 21.4293 8.47516 21.4293H6.09744ZM19.1631 21.8725C19.1011 21.8726 19.04 21.8842 18.9854 21.9062C18.9308 21.9283 18.8843 21.9601 18.8501 21.9989L16.7898 24.3181L14.7281 21.9989C14.6934 21.96 14.6464 21.9282 14.5913 21.9063C14.5361 21.8845 14.4745 21.8732 14.4121 21.8736C14.3504 21.8737 14.2898 21.8853 14.2354 21.9071C14.1811 21.929 14.1348 21.9605 14.1006 21.9989L11.7243 24.6667C11.697 24.6975 11.678 24.7321 11.6686 24.7684C11.6591 24.8047 11.6593 24.8421 11.6691 24.8783C11.6789 24.9146 11.6982 24.949 11.7258 24.9797C11.7535 25.0104 11.7889 25.0367 11.8301 25.0571C11.9132 25.0985 12.0148 25.1135 12.1126 25.0989C12.2104 25.0842 12.2965 25.0411 12.3518 24.979L14.4121 22.6631L16.4783 24.979C16.5128 25.0169 16.5592 25.0478 16.6133 25.0693C16.6675 25.0907 16.7278 25.1019 16.7891 25.1019C16.8504 25.1019 16.9107 25.0907 16.9649 25.0693C17.019 25.0478 17.0654 25.0169 17.0999 24.979L19.1661 22.6631L21.2278 24.979C21.2832 25.0411 21.3692 25.0842 21.4671 25.0989C21.5649 25.1135 21.6665 25.0985 21.7495 25.0571C21.7908 25.0367 21.8262 25.0104 21.8538 24.9797C21.8815 24.949 21.9007 24.9146 21.9106 24.8783C21.9204 24.8421 21.9206 24.8047 21.9111 24.7684C21.9016 24.7321 21.8827 24.6975 21.8554 24.6667L19.4776 21.9989C19.4433 21.96 19.3966 21.9281 19.3417 21.906C19.2868 21.8839 19.2254 21.8724 19.1631 21.8725ZM6.09744 21.9901H8.47516C8.9314 21.9901 9.28635 22.2558 9.28635 22.5972V24.3764C9.28635 24.7179 8.9314 24.9824 8.47516 24.9824H6.09744C5.6412 24.9824 5.28625 24.7179 5.28625 24.3764V22.5972C5.28625 22.2558 5.6412 21.9901 6.09744 21.9901Z" fill="black"/>
</svg>
