<svg width="38" height="25" viewBox="0 0 38 25" fill="none" xmlns="http://www.w3.org/2000/svg">
<path d="M36.8451 18.4163L37.4155 1.98427C37.4337 1.45664 37.2436 0.958769 36.8802 0.582847C36.5172 0.206925 36.0266 0 35.4994 0H12.0732C10.9901 0 10.0788 0.880992 10.0409 1.96363L9.47054 18.3957C9.4691 18.4346 9.4763 18.473 9.47726 18.5123L1.35966 21.5773C1.35582 21.5788 1.35197 21.5802 1.34813 21.5821C1.08312 21.695 0.82818 21.8111 0.591489 21.9283L0.168037 22.1371C0.154594 22.1439 0.145472 22.1554 0.133469 22.1635C0.115225 22.176 0.0969813 22.1871 0.0820981 22.2029C0.0686552 22.2173 0.0600131 22.2341 0.0499309 22.2504C0.0398487 22.2668 0.0283262 22.2816 0.0216047 22.3004C0.0139231 22.3205 0.0120029 22.3421 0.00864217 22.3637C0.00624165 22.3781 0 22.3916 0 22.4065C0 22.4094 0.00144063 22.4118 0.00192074 22.4146C0.00192074 22.4295 0.00720198 22.4439 0.0100826 22.4588C0.0124831 22.5116 0.0153636 22.5644 0.0211249 22.6177C0.0504113 23.9611 0.884352 24.8665 2.0995 24.8723L29.222 25C29.2264 25 29.2302 25 29.2345 25C29.718 25 30.115 24.8579 30.4098 24.6001C30.9893 24.4541 32.673 23.3941 36.6934 20.6474C36.7635 20.5998 36.8096 20.5249 36.8216 20.4409L36.8279 20.3977C36.8888 19.9656 36.9728 19.3223 36.8082 18.7058C36.8259 18.6103 36.8418 18.5133 36.8451 18.4163ZM12.0737 0.60061H35.4999C35.8628 0.60061 36.1994 0.742722 36.4486 1.00006C36.6977 1.25787 36.8279 1.60019 36.8154 1.96315L36.245 18.3952C36.245 18.4019 36.2426 18.4082 36.2426 18.4149H10.0726L10.643 1.98379C10.6694 1.22091 11.3117 0.600131 12.0741 0.600131L12.0737 0.60061ZM30.9077 21.9273L30.5471 22.1054H1.66164L9.84454 19.016H35.4917L31.5155 21.6023C31.335 21.7084 31.1304 21.8174 30.9077 21.9273ZM29.2254 24.3984L2.10286 24.2707C1.24203 24.2669 0.68991 23.6682 0.632298 22.7065H30.2778C30.4012 23.3024 30.3479 23.769 30.117 24.0542C29.9326 24.2822 29.6359 24.3979 29.2355 24.3979C29.2321 24.3979 29.2288 24.3984 29.2254 24.3984ZM36.245 20.2258C34.8671 21.1673 32.1852 22.9946 30.9019 23.7176C30.9581 23.4301 30.9624 23.0671 30.8726 22.6153L31.1737 22.467C31.4123 22.3493 31.6317 22.2317 31.8261 22.1175C31.83 22.115 31.8338 22.1126 31.8376 22.1102L36.293 19.2123C36.3261 19.5691 36.2858 19.9291 36.245 20.2258ZM11.6598 16.8392H34.8023C34.9641 16.8392 35.0971 16.7105 35.1028 16.5487L35.5767 2.52631C35.5796 2.44469 35.5489 2.36595 35.4922 2.30738C35.4355 2.24881 35.3578 2.21568 35.2762 2.21568H12.1337C11.9719 2.21568 11.8389 2.34435 11.8331 2.50614L11.3593 16.5286C11.3564 16.6102 11.3871 16.6889 11.4438 16.7475C11.5004 16.8061 11.5782 16.8392 11.6598 16.8392ZM12.4241 2.81677H34.965L34.5118 16.2381H11.9709L12.4241 2.81677ZM33.4028 19.932C33.4316 19.9114 33.4561 19.8845 33.469 19.8509C33.4705 19.8475 33.47 19.8446 33.471 19.8413C33.4772 19.8226 33.483 19.8029 33.483 19.7822C33.483 19.7683 33.4782 19.7563 33.4753 19.7433C33.4743 19.739 33.4772 19.7347 33.4758 19.7304C33.4748 19.7275 33.4719 19.7265 33.4714 19.7236C33.4604 19.69 33.4402 19.6617 33.4133 19.6392C33.4081 19.6348 33.4028 19.632 33.397 19.6281C33.3673 19.6084 33.3337 19.594 33.2957 19.594H10.7505H9.33803C9.31403 19.594 9.29002 19.5988 9.26746 19.6079L7.27022 20.4188L5.27779 21.2278C5.19473 21.2614 5.14672 21.3498 5.164 21.4376C5.18129 21.5255 5.25858 21.5893 5.34836 21.5893H6.93463H8.79167H10.4034H11.9258H13.4477H14.9005H16.3932H19.5268H21.0195H22.4722H23.9942H25.5166H27.1283H28.9853H30.7214C30.7569 21.5893 30.7915 21.5793 30.8217 21.5605L33.3932 19.9407C33.3965 19.9383 33.3975 19.9339 33.4004 19.9315L33.4028 19.932ZM28.9369 21.2139H27.8585L28.644 20.7799H29.6805L28.9369 21.2139ZM26.2463 21.2139L27.0318 20.7799H27.8672L27.0817 21.2139H26.2463ZM24.7235 21.2139L25.5089 20.7799H26.255L25.4695 21.2139H24.7235ZM23.2159 21.2139L24.0191 20.7799H24.7326L23.9471 21.2139H23.2159ZM21.7723 21.2139L22.587 20.7799H23.2294L22.4262 21.2139H21.7723ZM20.307 21.2139L21.1558 20.7799H21.7881L20.9734 21.2139H20.307ZM17.23 21.2139L18.1479 20.7799H19.6536H20.3305L19.4817 21.2139H17.23ZM15.7652 21.2139L16.7172 20.7799H17.2694L16.3514 21.2139H15.7652ZM14.3215 21.2139L15.2851 20.7799H15.8118L14.8597 21.2139H14.3215ZM12.814 21.2139L13.7953 20.7799H14.3705L13.4069 21.2139H12.814ZM11.2911 21.2139L12.2724 20.7799H12.8668L11.8855 21.2139H11.2911ZM9.6789 21.2139L10.6602 20.7799H11.3439L10.3626 21.2139H9.6789ZM7.85643 21.2139L8.87953 20.7799H9.7322L8.75086 21.2139H7.85643ZM11.5624 19.9699L10.581 20.404H9.76484L10.7879 19.9699H11.5624ZM13.1745 19.9699L12.1932 20.404H11.5095L12.4909 19.9699H13.1745ZM14.6974 19.9699L13.7161 20.404H13.1217L14.1031 19.9699H14.6974ZM16.1675 19.9699L15.2039 20.404H14.6441L15.6255 19.9699H16.1675ZM17.5877 19.9699L16.6356 20.404H16.1185L17.0821 19.9699H17.5877ZM18.9814 19.9699L18.0634 20.404H17.5406L18.4927 19.9699H18.9814ZM20.5014 19.9699L19.6103 20.404H18.9425L19.8605 19.9699H20.5014ZM21.9139 19.9699L21.0651 20.404H20.4678L21.3589 19.9699H21.9139ZM23.3076 19.9699L22.4929 20.404H21.8899L22.7387 19.9699H23.3076ZM24.7273 19.9699L23.9241 20.404H23.2918L24.1065 19.9699H24.7273ZM26.1974 19.9699L25.4119 20.404H24.7143L25.5176 19.9699H26.1974ZM27.7203 19.9699L26.9348 20.404H26.1887L26.9742 19.9699H27.7203ZM29.3325 19.9699L28.547 20.404H27.7116L28.4971 19.9699H29.3325ZM29.3238 20.404L30.1093 19.9699H31.068L30.3244 20.404H29.3238ZM9.82726 19.9699L8.80416 20.404H8.30485L9.37404 19.9699H9.82726ZM7.37968 20.7799H7.91884L6.89574 21.2139H6.31001L7.37968 20.7799ZM30.67 21.2139H29.6825L30.4261 20.7799H31.3595L30.67 21.2139ZM31.9558 20.404H31.0695L31.8132 19.9699H32.6447L31.9558 20.404Z" fill="black"/>
</svg>
