<svg width="38" height="36" viewBox="0 0 38 36" fill="none" xmlns="http://www.w3.org/2000/svg">
<g filter="url(#filter0_d_156_413)">
<path d="M19 0L22.3677 10.3647H33.2658L24.4491 16.7705L27.8168 27.1353L19 20.7295L10.1832 27.1353L13.5509 16.7705L4.73415 10.3647H15.6323L19 0Z" fill="white"/>
<path d="M19 3.23607L21.4167 10.6738L21.6412 11.3647H22.3677H30.1882L23.8613 15.9615L23.2735 16.3885L23.498 17.0795L25.9147 24.5172L19.5878 19.9205L19 19.4934L18.4122 19.9205L12.0853 24.5172L14.502 17.0795L14.7265 16.3885L14.1387 15.9615L7.81184 11.3647H15.6323H16.3588L16.5833 10.6738L19 3.23607Z" stroke="#FFD338" stroke-width="2"/>
</g>
<defs>
<filter id="filter0_d_156_413" x="0.734375" y="0" width="36.5312" height="35.1353" filterUnits="userSpaceOnUse" color-interpolation-filters="sRGB">
<feFlood flood-opacity="0" result="BackgroundImageFix"/>
<feColorMatrix in="SourceAlpha" type="matrix" values="0 0 0 0 0 0 0 0 0 0 0 0 0 0 0 0 0 0 127 0" result="hardAlpha"/>
<feOffset dy="4"/>
<feGaussianBlur stdDeviation="2"/>
<feComposite in2="hardAlpha" operator="out"/>
<feColorMatrix type="matrix" values="0 0 0 0 0 0 0 0 0 0 0 0 0 0 0 0 0 0 0.25 0"/>
<feBlend mode="normal" in2="BackgroundImageFix" result="effect1_dropShadow_156_413"/>
<feBlend mode="normal" in="SourceGraphic" in2="effect1_dropShadow_156_413" result="shape"/>
</filter>
</defs>
</svg>
