<svg width="17" height="30" viewBox="0 0 17 30" fill="none" xmlns="http://www.w3.org/2000/svg">
<path fill-rule="evenodd" clip-rule="evenodd" d="M11.6627 27.2507C11.6628 27.3123 11.6507 27.3733 11.6271 27.4303C11.6036 27.4872 11.5691 27.5389 11.5255 27.5825C11.4819 27.6261 11.4302 27.6606 11.3732 27.6841C11.3163 27.7077 11.2553 27.7198 11.1937 27.7197H5.62767C5.50549 27.7164 5.38941 27.6656 5.30414 27.578C5.21888 27.4904 5.17117 27.3731 5.17117 27.2508C5.17117 27.1286 5.21888 27.0112 5.30414 26.9237C5.38941 26.8361 5.50549 26.7853 5.62767 26.782H11.1943C11.256 26.7817 11.3171 26.7936 11.3741 26.817C11.4311 26.8405 11.4829 26.875 11.5265 26.9186C11.5701 26.9621 11.6047 27.0139 11.6282 27.0709C11.6516 27.1279 11.6636 27.189 11.6633 27.2507H11.6627ZM6.67567 2.87233C6.67619 2.7482 6.72574 2.6293 6.81352 2.54152C6.9013 2.45374 7.0202 2.40419 7.14433 2.40367H7.17533C7.23795 2.402 7.30027 2.41289 7.35861 2.4357C7.41696 2.45851 7.47014 2.49278 7.51502 2.53648C7.5599 2.58018 7.59557 2.63242 7.61993 2.69014C7.64429 2.74785 7.65684 2.80986 7.65684 2.8725C7.65684 2.93514 7.64429 2.99715 7.61993 3.05486C7.59557 3.11258 7.5599 3.16482 7.51502 3.20852C7.47014 3.25222 7.41696 3.28649 7.35861 3.3093C7.30027 3.33211 7.23795 3.343 7.17533 3.34133H7.14433C7.08268 3.3416 7.0216 3.32965 6.96459 3.30617C6.90759 3.28269 6.8558 3.24814 6.81223 3.20454C6.76865 3.16093 6.73415 3.10912 6.71071 3.0521C6.68727 2.99508 6.67536 2.93398 6.67567 2.87233ZM7.93233 2.87233C7.93295 2.74822 7.98252 2.62937 8.07028 2.54161C8.15804 2.45385 8.27689 2.40428 8.401 2.40367H9.67767C9.79984 2.40692 9.91592 2.45775 10.0012 2.54532C10.0865 2.63289 10.1342 2.75028 10.1342 2.8725C10.1342 2.99472 10.0865 3.11211 10.0012 3.19968C9.91592 3.28725 9.79984 3.33808 9.67767 3.34133H8.401C8.33943 3.34133 8.27845 3.3292 8.22157 3.30563C8.16469 3.28205 8.11301 3.2475 8.06948 3.20395C8.02596 3.16039 7.99145 3.10869 7.96791 3.05179C7.94438 2.99489 7.93229 2.93391 7.93233 2.87233ZM15.885 2.51667C15.884 2.0977 15.7169 1.69624 15.4202 1.40039C15.1236 1.10455 14.7216 0.938489 14.3027 0.938667H2.51933C2.1004 0.938489 1.69851 1.10456 1.40191 1.40041C1.1053 1.69627 0.938216 2.09773 0.937333 2.51667V27.481C0.938127 27.9002 1.10511 28.3019 1.40167 28.5982C1.69823 28.8944 2.10016 29.061 2.51933 29.0613H14.3027C14.7219 29.061 15.1238 28.8944 15.4205 28.5982C15.7171 28.302 15.8841 27.9002 15.885 27.481V2.51667ZM2.51933 0C1.85179 0.000528374 1.2117 0.265761 0.739421 0.737537C0.267146 1.20931 0.00123533 1.84912 0 2.51667V27.481C0.000794109 28.1489 0.266489 28.7892 0.738793 29.2614C1.2111 29.7337 1.85144 29.9993 2.51933 30H14.3027C14.9704 29.9993 15.6106 29.7338 16.0829 29.2618C16.5551 28.7898 16.8209 28.1497 16.822 27.482V2.51667C16.8208 1.84912 16.5549 1.20931 16.0826 0.737537C15.6103 0.265761 14.9702 0.000528374 14.3027 0H2.51933Z" fill="black"/>
</svg>
