<svg width="21" height="20" viewBox="0 0 21 20" fill="none" xmlns="http://www.w3.org/2000/svg">
<path d="M7.01458 0C3.15241 0 0 3.14585 0 7C0 10.8541 3.15241 14 7.01458 14C8.76622 14 10.3666 13.348 11.5983 12.2812L12.025 12.707V14L18.0375 20L20.0417 18L14.0292 12H12.7335L12.3068 11.5742C13.3758 10.345 14.0292 8.748 14.0292 7C14.0292 3.14585 10.8768 0 7.01458 0ZM7.01458 2C9.79363 2 12.025 4.22673 12.025 7C12.025 9.77327 9.79363 12 7.01458 12C4.23554 12 2.00417 9.77327 2.00417 7C2.00417 4.22673 4.23554 2 7.01458 2Z" fill="#787171"/>
</svg>
