<svg width="15" height="15" viewBox="0 0 15 15" fill="none" xmlns="http://www.w3.org/2000/svg">
<path d="M7.5 0C3.36477 0 0 3.36477 0 7.5C0 11.6352 3.36477 15 7.5 15C11.6352 15 15 11.6352 15 7.5C15 3.36477 11.6352 0 7.5 0ZM7.5 13.6364C4.11614 13.6364 1.36364 10.8839 1.36364 7.5C1.36364 4.11614 4.11614 1.36364 7.5 1.36364C10.8839 1.36364 13.6364 4.11614 13.6364 7.5C13.6364 10.8839 10.8839 13.6364 7.5 13.6364Z" fill="#2CCB12"/>
<circle cx="7.5" cy="7.5" r="7.5" fill="#27F454"/>
<path d="M10.9058 5.2918L7.51346 9.89798L4.0942 5.25525C3.8436 4.91492 3.4379 4.91492 3.18795 5.25525C2.93735 5.59557 2.93735 6.14567 3.18795 6.486L7.06033 11.745C7.18083 11.9086 7.34298 12 7.51346 12C7.6833 12 7.84673 11.9086 7.96658 11.745L11.8121 6.52255C12.0626 6.18222 12.0626 5.63126 11.8121 5.2918C11.5615 4.95147 11.1558 4.95147 10.9058 5.2918Z" fill="white"/>
</svg>
