<svg width="36" height="35" viewBox="0 0 36 35" fill="none" xmlns="http://www.w3.org/2000/svg">
<path fill-rule="evenodd" clip-rule="evenodd" d="M22.7966 9.08369C22.9512 9.60943 23.0635 8.67026 23.5093 8.90524C23.635 9.80288 22.8528 9.79211 22.7966 10.5078C23.8512 11.1132 24.3292 12.6412 26.1806 11.9327C26.2252 12.9269 25.4818 13.1338 24.9338 13.5357C24.848 14.0965 25.4803 13.9392 25.2907 14.6041C24.9126 14.8791 24.4969 15.1164 24.0438 15.3164C24.3557 17.7701 23.4589 19.5915 22.9751 21.7275C21.0713 25.0146 16.5966 27.7925 11.2208 27.2487C8.65289 26.9883 5.52117 26.2415 4.27509 24.3989C7.83602 24.3381 9.01595 21.8975 10.152 19.4127C9.85936 19.1115 9.18594 19.1911 8.90557 18.8785C8.75827 18.3743 9.15632 18.4166 9.08364 17.9874C8.62174 17.737 7.90563 17.7408 7.48105 17.4532C7.05107 17.0397 7.75911 16.9767 7.83718 16.5632C6.95416 16.0213 5.83961 15.711 4.98774 15.1383C5.02197 14.5787 5.31849 14.2818 5.87769 14.2476C5.56309 13.393 4.65584 14.2057 4.45316 13.3577C4.14126 12.2143 5.40887 12.6515 5.52155 11.9327C5.18158 11.382 4.23933 11.4339 3.91858 10.8643C7.45028 8.1026 12.2884 11.6955 14.0702 14.0699C15.5244 9.35021 19.6607 7.31265 24.2215 5.69929C24.5246 5.6343 24.5573 5.83813 24.5777 6.05581C23.4793 6.95614 23.5358 7.94569 22.7966 9.08369ZM14.6044 14.7822C18.2227 14.3999 17.4766 8.78102 22.262 10.1517C21.6913 9.13946 22.5386 8.17144 22.7966 7.12382C18.378 7.97838 15.5017 10.9574 14.6044 14.7822ZM5.16542 10.8643C5.61193 11.1897 6.33843 11.2351 6.59033 11.7547C6.42265 12.4777 5.39195 12.3377 5.16542 13.0011C5.47579 13.5219 6.48572 13.343 6.7684 13.8918C6.61802 14.4537 5.85 14.3984 5.7 14.9602C6.70956 15.316 7.41759 15.9733 8.54944 16.2067C8.58944 16.7382 7.89179 16.8124 8.37137 17.2755C9.0521 17.2478 9.6686 17.2843 9.97435 17.6316C9.87359 18.002 9.46554 18.2073 9.79628 18.5219C10.4859 18.6904 10.5293 17.8278 11.0427 18.3439C10.1536 21.3133 8.78904 23.8078 5.87769 24.7558C10.0513 27.5879 18.5692 26.7641 21.1936 23.1528C22.0436 20.7972 23.6369 19.1838 23.1531 15.4944C23.3658 15.0537 23.7627 14.7979 24.2215 14.6037C24.3077 14.043 23.6754 14.2003 23.865 13.5353C24.2004 13.2773 24.7907 13.2734 24.9334 12.8231C24.3765 12.7865 23.6266 12.9431 23.3304 12.6446C23.2908 12.3081 23.5316 12.252 23.5089 11.9324C19.0199 7.858 18.2411 15.4218 14.0702 15.4944C12.6649 12.6369 8.82058 9.73288 5.16542 10.8643Z" fill="black"/>
<path fill-rule="evenodd" clip-rule="evenodd" d="M19.7691 12.4669C20.9306 12.4342 21.4898 13.0027 22.0847 13.5357C22.0251 14.4849 21.3525 14.8218 20.3037 14.7822C20.2252 14.5633 20.0756 14.4164 19.7691 14.426C19.7137 13.8411 19.3568 12.968 19.7691 12.4669ZM21.016 13.8918C20.9544 13.4784 20.9006 13.0573 20.3033 13.1792C20.2206 13.7372 20.4583 13.9745 21.016 13.8918Z" fill="black"/>
<path fill-rule="evenodd" clip-rule="evenodd" d="M32.7703 9.43947C33.5837 6.55657 32.5622 3.74444 32.2357 1.78149C32.846 1.39228 33.9129 1.81149 34.5505 1.95956C34.7767 5.87815 35.9862 11.6532 33.4821 13.8923C33.7448 20.6253 30.2246 23.5755 27.4275 27.2495C27.681 26.863 29.7778 26.6003 30.4546 26.5365C31.2084 25.5088 31.345 23.8655 32.4137 23.1532C32.9975 24.2158 31.2254 24.4543 31.5238 25.8246C32.9233 26.0342 33.6102 23.9939 34.3732 22.9748C34.5932 25.748 32.2295 25.9361 30.9892 27.2491C32.0234 27.6291 33.1498 28.0033 34.0167 27.2491C33.7594 29.5617 31.0477 27.6125 29.7424 27.7833C28.1167 27.9968 27.6287 29.2867 26.7149 30.2762C27.6871 29.9993 28.6374 28.7602 29.7424 29.2078C28.1409 30.0374 26.1103 31.1973 26.0022 32.948C26.198 33.7025 26.9799 33.8698 26.8929 34.9079C25.02 35.0567 22.8717 35.0017 20.8375 34.9079C21.3587 32.3503 22.2605 29.7851 23.6874 27.7837C24.9031 26.0769 26.8037 25.2592 26.8929 23.5097C26.9656 22.0806 25.9095 21.6064 25.6461 20.1257C27.1152 20.6157 27.719 21.9714 27.6052 24.0439C30.2916 22.4244 31.6988 15.6706 27.6052 14.6049C27.731 13.9646 28.4417 14.3545 28.6736 14.6049C28.757 13.9038 28.3002 13.68 28.852 13.3584C29.5189 13.9973 29.029 15.7941 30.2766 15.8514C31.1861 11.9732 29.3459 9.30255 25.4676 9.6183C25.7242 8.34223 27.5102 9.52331 28.6736 9.43985C28.9101 8.40799 29.182 7.46998 28.3175 6.41235C27.6267 5.56702 26.5326 5.57894 24.9334 4.80976C23.5097 4.12442 22.3105 2.83873 21.5502 2.49414C21.1441 2.3103 20.1518 2.6622 20.3034 1.95994C21.4256 0.933083 22.6397 2.8022 23.6874 3.02833C24.127 2.41491 23.1632 1.97302 23.1528 1.24768C24.0597 0.92693 25.2673 1.70688 26.7145 1.42574C27.8629 2.8995 29.3124 2.70105 30.2766 3.74137C31.6257 5.19589 30.7758 8.2407 32.7703 9.43947Z" fill="black"/>
<path fill-rule="evenodd" clip-rule="evenodd" d="M11.3989 0.000451237C11.0643 1.56535 10.1474 2.54837 8.7275 3.02795C11.2862 3.27101 14.1802 2.30761 14.9606 0.178517C15.3802 0.174286 15.4848 0.485036 16.029 0.356583C16.0686 1.28614 15.4963 1.60458 15.1386 2.13762C16.8008 1.71957 18.6007 -0.251071 20.4814 0.712714C20.2948 1.94148 17.9392 1.00154 17.4539 2.31569C15.0436 3.52677 11.8485 3.95251 8.7275 4.45286C9.31554 4.93322 10.537 4.78053 10.8647 5.52126C10.2247 6.05122 7.91524 4.44555 6.59033 5.52126C6.56341 6.08237 7.58373 5.59664 7.30259 6.41197C1.10298 5.5151 2.49943 12.3654 2.31598 17.9878C2.18791 21.8964 1.89216 25.16 3.74051 27.6052C5.60039 30.0655 8.06639 31.5054 11.7546 31.7015C11.8815 30.7643 10.0843 30.3128 9.97396 29.0301C11.1285 29.1736 11.2981 30.3781 12.1111 30.9893C13.8922 32.3276 16.3997 32.5807 18.5223 33.6606C16.8043 34.6117 14.3006 34.2883 12.1111 34.1948C8.42136 34.0364 4.44854 33.171 0.891072 33.8391C0.421871 29.7574 1.22413 25.7184 1.06914 21.1937C0.925301 16.999 0.0453567 12.855 0.00035956 8.90527C-0.0177162 7.31576 0.651472 5.75393 0.713007 4.2748C0.774926 2.78143 -0.321928 1.79149 0.178425 0.356583C1.26759 1.49574 1.41565 4.0102 1.06875 6.05584C1.51911 4.89399 2.87249 4.37364 3.56206 3.38447C4.16125 2.52491 3.9078 1.05269 5.16465 0.713098C5.35348 1.97033 4.8039 2.48952 4.63045 3.38447C6.20304 2.64028 9.71513 1.34652 10.8639 0.178901C11.0074 0.0846766 11.1535 -0.00724058 11.3989 0.000451237ZM1.42527 14.248C1.31182 13.5904 1.65602 12.4743 1.24759 12.1108C1.05875 12.8396 0.986451 13.7157 1.42527 14.248Z" fill="black"/>
</svg>
